<mxfile host="app.diagrams.net" modified="2021-11-15T18:34:58.322Z" agent="5.0 (Macintosh; Intel Mac OS X 10_15_7) AppleWebKit/537.36 (KHTML, like Gecko) Chrome/95.0.4638.69 Safari/537.36" etag="eQfy1kVy-bB0oRoohit_" version="15.6.8" type="github">
  <diagram id="jlQvAU0_itsFVvDZ_jsI" name="Page-1">
    <mxGraphModel dx="1442" dy="650" grid="1" gridSize="10" guides="1" tooltips="1" connect="1" arrows="1" fold="1" page="1" pageScale="1" pageWidth="850" pageHeight="1100" math="0" shadow="0">
      <root>
        <mxCell id="0" />
        <mxCell id="1" parent="0" />
        <mxCell id="aAynQ1XD1Ic2zVClaHSK-59" value="1.&lt;br&gt;&lt;br&gt;&lt;span style=&quot;white-space: pre&quot;&gt;	&lt;/span&gt;&lt;span style=&quot;white-space: pre&quot;&gt;	&lt;/span&gt;&lt;br&gt;&lt;span style=&quot;white-space: pre&quot;&gt;	&lt;span style=&quot;white-space: pre&quot;&gt;	&lt;/span&gt;&lt;/span&gt;a)" style="text;html=1;align=center;verticalAlign=middle;resizable=0;points=[];autosize=1;strokeColor=none;fillColor=none;fontSize=19;" vertex="1" parent="1">
          <mxGeometry width="120" height="100" as="geometry" />
        </mxCell>
        <mxCell id="aAynQ1XD1Ic2zVClaHSK-60" value="3." style="text;html=1;strokeColor=none;fillColor=none;align=center;verticalAlign=middle;whiteSpace=wrap;rounded=0;labelBackgroundColor=none;labelBorderColor=none;fontSize=19;" vertex="1" parent="1">
          <mxGeometry x="30" y="1510" width="60" height="30" as="geometry" />
        </mxCell>
        <mxCell id="aAynQ1XD1Ic2zVClaHSK-62" value="" style="ellipse;whiteSpace=wrap;html=1;aspect=fixed;labelBackgroundColor=none;labelBorderColor=none;fontSize=19;align=center;" vertex="1" parent="1">
          <mxGeometry x="NaN" y="NaN" height="NaN" as="geometry" />
        </mxCell>
        <mxCell id="aAynQ1XD1Ic2zVClaHSK-111" value="4.&lt;br&gt;" style="text;html=1;align=center;verticalAlign=middle;resizable=0;points=[];autosize=1;strokeColor=none;fillColor=none;fontSize=15;" vertex="1" parent="1">
          <mxGeometry x="80" y="2240" width="30" height="20" as="geometry" />
        </mxCell>
        <mxCell id="aAynQ1XD1Ic2zVClaHSK-112" value="Invoker" style="rounded=0;whiteSpace=wrap;html=1;labelBackgroundColor=none;labelBorderColor=none;fontSize=15;align=center;" vertex="1" parent="1">
          <mxGeometry x="160" y="2260" width="120" height="60" as="geometry" />
        </mxCell>
        <mxCell id="aAynQ1XD1Ic2zVClaHSK-113" value="ConcreteCommand" style="rounded=0;whiteSpace=wrap;html=1;labelBackgroundColor=none;labelBorderColor=none;fontSize=15;align=center;" vertex="1" parent="1">
          <mxGeometry x="410" y="2260" width="140" height="60" as="geometry" />
        </mxCell>
        <mxCell id="aAynQ1XD1Ic2zVClaHSK-114" value="Reciever" style="whiteSpace=wrap;html=1;labelBackgroundColor=none;labelBorderColor=none;fontSize=15;align=center;" vertex="1" parent="1">
          <mxGeometry x="680" y="2260" width="120" height="60" as="geometry" />
        </mxCell>
        <mxCell id="aAynQ1XD1Ic2zVClaHSK-117" value="" style="endArrow=none;dashed=1;html=1;rounded=0;fontSize=15;entryX=0.5;entryY=1;entryDx=0;entryDy=0;" edge="1" parent="1" target="aAynQ1XD1Ic2zVClaHSK-112">
          <mxGeometry width="50" height="50" relative="1" as="geometry">
            <mxPoint x="220" y="2640" as="sourcePoint" />
            <mxPoint x="229" y="2380" as="targetPoint" />
          </mxGeometry>
        </mxCell>
        <mxCell id="aAynQ1XD1Ic2zVClaHSK-118" value="" style="endArrow=none;dashed=1;html=1;rounded=0;fontSize=15;entryX=0.5;entryY=1;entryDx=0;entryDy=0;" edge="1" parent="1" target="aAynQ1XD1Ic2zVClaHSK-113">
          <mxGeometry width="50" height="50" relative="1" as="geometry">
            <mxPoint x="480" y="2640" as="sourcePoint" />
            <mxPoint x="730" y="2440" as="targetPoint" />
          </mxGeometry>
        </mxCell>
        <mxCell id="aAynQ1XD1Ic2zVClaHSK-119" value="" style="endArrow=none;dashed=1;html=1;rounded=0;fontSize=15;entryX=0.5;entryY=1;entryDx=0;entryDy=0;" edge="1" parent="1">
          <mxGeometry width="50" height="50" relative="1" as="geometry">
            <mxPoint x="740" y="2640" as="sourcePoint" />
            <mxPoint x="740" y="2320" as="targetPoint" />
          </mxGeometry>
        </mxCell>
        <mxCell id="aAynQ1XD1Ic2zVClaHSK-120" value="" style="group" vertex="1" connectable="0" parent="1">
          <mxGeometry y="50" width="816" height="960" as="geometry" />
        </mxCell>
        <mxCell id="aAynQ1XD1Ic2zVClaHSK-1" value="" style="whiteSpace=wrap;html=1;aspect=fixed;" vertex="1" parent="aAynQ1XD1Ic2zVClaHSK-120">
          <mxGeometry x="107.44154370034052" width="175.98183881952326" height="175.98183881952326" as="geometry" />
        </mxCell>
        <mxCell id="aAynQ1XD1Ic2zVClaHSK-2" value="Task" style="text;html=1;strokeColor=none;fillColor=none;align=center;verticalAlign=middle;whiteSpace=wrap;rounded=0;" vertex="1" parent="aAynQ1XD1Ic2zVClaHSK-120">
          <mxGeometry x="107.44154370034052" width="175.98183881952326" height="28.51485148514851" as="geometry" />
        </mxCell>
        <mxCell id="aAynQ1XD1Ic2zVClaHSK-5" value="" style="endArrow=none;html=1;rounded=0;exitX=0;exitY=0.25;exitDx=0;exitDy=0;entryX=1;entryY=0.25;entryDx=0;entryDy=0;" edge="1" parent="aAynQ1XD1Ic2zVClaHSK-120" source="aAynQ1XD1Ic2zVClaHSK-1" target="aAynQ1XD1Ic2zVClaHSK-1">
          <mxGeometry width="50" height="50" relative="1" as="geometry">
            <mxPoint x="144.49035187287174" y="76.03960396039604" as="sourcePoint" />
            <mxPoint x="190.80136208853574" y="28.51485148514851" as="targetPoint" />
            <Array as="points" />
          </mxGeometry>
        </mxCell>
        <mxCell id="aAynQ1XD1Ic2zVClaHSK-6" value="-Title: String&lt;br&gt;-EffortEstimate: int&lt;br&gt;-dependant: Task" style="text;html=1;strokeColor=none;fillColor=none;align=left;verticalAlign=middle;whiteSpace=wrap;rounded=0;" vertex="1" parent="aAynQ1XD1Ic2zVClaHSK-120">
          <mxGeometry x="107.44154370034052" y="47.524752475247524" width="148.19523269012484" height="38.01980198019802" as="geometry" />
        </mxCell>
        <mxCell id="aAynQ1XD1Ic2zVClaHSK-7" value="" style="endArrow=none;html=1;rounded=0;entryX=1;entryY=0.5;entryDx=0;entryDy=0;exitX=0;exitY=0.5;exitDx=0;exitDy=0;" edge="1" parent="aAynQ1XD1Ic2zVClaHSK-120" source="aAynQ1XD1Ic2zVClaHSK-1" target="aAynQ1XD1Ic2zVClaHSK-1">
          <mxGeometry width="50" height="50" relative="1" as="geometry">
            <mxPoint x="107.44154370034052" y="123.56435643564356" as="sourcePoint" />
            <mxPoint x="153.75255391600453" y="76.03960396039604" as="targetPoint" />
            <Array as="points" />
          </mxGeometry>
        </mxCell>
        <mxCell id="aAynQ1XD1Ic2zVClaHSK-8" value="getTitle()&lt;br&gt;getEffortEstimate()&lt;br&gt;setTitle(title)&lt;br&gt;setEffortEstimate(effort)" style="text;html=1;strokeColor=none;fillColor=none;align=left;verticalAlign=middle;whiteSpace=wrap;rounded=0;" vertex="1" parent="aAynQ1XD1Ic2zVClaHSK-120">
          <mxGeometry x="107.44154370034052" y="95.04950495049505" width="175.98183881952326" height="47.524752475247524" as="geometry" />
        </mxCell>
        <mxCell id="aAynQ1XD1Ic2zVClaHSK-9" value="" style="whiteSpace=wrap;html=1;aspect=fixed;" vertex="1" parent="aAynQ1XD1Ic2zVClaHSK-120">
          <mxGeometry x="505.7162315550511" width="175.98183881952326" height="175.98183881952326" as="geometry" />
        </mxCell>
        <mxCell id="aAynQ1XD1Ic2zVClaHSK-10" value="TeamMember" style="text;html=1;strokeColor=none;fillColor=none;align=center;verticalAlign=middle;whiteSpace=wrap;rounded=0;" vertex="1" parent="aAynQ1XD1Ic2zVClaHSK-120">
          <mxGeometry x="505.7162315550511" width="175.98183881952326" height="28.51485148514851" as="geometry" />
        </mxCell>
        <mxCell id="aAynQ1XD1Ic2zVClaHSK-11" value="" style="endArrow=none;html=1;rounded=0;exitX=0;exitY=0.25;exitDx=0;exitDy=0;entryX=1;entryY=0.25;entryDx=0;entryDy=0;" edge="1" parent="aAynQ1XD1Ic2zVClaHSK-120" source="aAynQ1XD1Ic2zVClaHSK-9" target="aAynQ1XD1Ic2zVClaHSK-9">
          <mxGeometry width="50" height="50" relative="1" as="geometry">
            <mxPoint x="542.7650397275822" y="76.03960396039604" as="sourcePoint" />
            <mxPoint x="589.0760499432463" y="28.51485148514851" as="targetPoint" />
            <Array as="points" />
          </mxGeometry>
        </mxCell>
        <mxCell id="aAynQ1XD1Ic2zVClaHSK-12" value="-name: String&lt;br&gt;-Tasks: ArrayList&amp;lt;Task&amp;gt;" style="text;html=1;strokeColor=none;fillColor=none;align=left;verticalAlign=middle;whiteSpace=wrap;rounded=0;" vertex="1" parent="aAynQ1XD1Ic2zVClaHSK-120">
          <mxGeometry x="505.7162315550511" y="47.524752475247524" width="148.19523269012484" height="38.01980198019802" as="geometry" />
        </mxCell>
        <mxCell id="aAynQ1XD1Ic2zVClaHSK-13" value="" style="endArrow=none;html=1;rounded=0;entryX=1;entryY=0.5;entryDx=0;entryDy=0;exitX=0;exitY=0.5;exitDx=0;exitDy=0;" edge="1" parent="aAynQ1XD1Ic2zVClaHSK-120" source="aAynQ1XD1Ic2zVClaHSK-9" target="aAynQ1XD1Ic2zVClaHSK-9">
          <mxGeometry width="50" height="50" relative="1" as="geometry">
            <mxPoint x="505.7162315550511" y="123.56435643564356" as="sourcePoint" />
            <mxPoint x="552.0272417707151" y="76.03960396039604" as="targetPoint" />
            <Array as="points" />
          </mxGeometry>
        </mxCell>
        <mxCell id="aAynQ1XD1Ic2zVClaHSK-14" value="getName()&lt;br&gt;getTasks()&lt;br&gt;setName()&lt;br&gt;addTask()&lt;br&gt;removeTask()" style="text;html=1;strokeColor=none;fillColor=none;align=left;verticalAlign=middle;whiteSpace=wrap;rounded=0;" vertex="1" parent="aAynQ1XD1Ic2zVClaHSK-120">
          <mxGeometry x="505.7162315550511" y="95.04950495049505" width="175.98183881952326" height="57.02970297029702" as="geometry" />
        </mxCell>
        <mxCell id="aAynQ1XD1Ic2zVClaHSK-16" style="edgeStyle=orthogonalEdgeStyle;rounded=0;orthogonalLoop=1;jettySize=auto;html=1;endArrow=none;endFill=0;startArrow=diamond;startFill=0;entryX=1.016;entryY=0.468;entryDx=0;entryDy=0;entryPerimeter=0;" edge="1" parent="aAynQ1XD1Ic2zVClaHSK-120" target="aAynQ1XD1Ic2zVClaHSK-1">
          <mxGeometry relative="1" as="geometry">
            <mxPoint x="505.7162315550511" y="85.54455445544554" as="sourcePoint" />
            <mxPoint x="348.2587968217934" y="85.54455445544554" as="targetPoint" />
            <Array as="points">
              <mxPoint x="286.2020431328036" y="85.54455445544554" />
            </Array>
          </mxGeometry>
        </mxCell>
        <mxCell id="aAynQ1XD1Ic2zVClaHSK-17" value="0..." style="text;html=1;strokeColor=none;fillColor=none;align=center;verticalAlign=middle;whiteSpace=wrap;rounded=0;" vertex="1" parent="aAynQ1XD1Ic2zVClaHSK-120">
          <mxGeometry x="283.42338251986376" y="57.02970297029702" width="27.78660612939841" height="28.51485148514851" as="geometry" />
        </mxCell>
        <mxCell id="aAynQ1XD1Ic2zVClaHSK-19" value="Actor" style="shape=umlActor;verticalLabelPosition=bottom;verticalAlign=top;html=1;outlineConnect=0;" vertex="1" parent="aAynQ1XD1Ic2zVClaHSK-120">
          <mxGeometry x="175.98183881952326" y="399.20792079207916" width="27.78660612939841" height="57.02970297029702" as="geometry" />
        </mxCell>
        <mxCell id="aAynQ1XD1Ic2zVClaHSK-20" value="Actor" style="shape=umlActor;verticalLabelPosition=bottom;verticalAlign=top;html=1;outlineConnect=0;" vertex="1" parent="aAynQ1XD1Ic2zVClaHSK-120">
          <mxGeometry x="774.3200908059024" y="570.2970297029702" width="27.78660612939841" height="57.02970297029702" as="geometry" />
        </mxCell>
        <mxCell id="aAynQ1XD1Ic2zVClaHSK-21" value="&lt;font style=&quot;font-size: 19px&quot;&gt;Group Check-in&lt;/font&gt;" style="ellipse;whiteSpace=wrap;html=1;align=center;" vertex="1" parent="aAynQ1XD1Ic2zVClaHSK-120">
          <mxGeometry x="417.7253121452894" y="399.20792079207916" width="111.14642451759364" height="76.03960396039604" as="geometry" />
        </mxCell>
        <mxCell id="aAynQ1XD1Ic2zVClaHSK-23" value="" style="endArrow=none;html=1;rounded=0;fontSize=24;entryX=0.008;entryY=0.413;entryDx=0;entryDy=0;entryPerimeter=0;" edge="1" parent="aAynQ1XD1Ic2zVClaHSK-120" source="aAynQ1XD1Ic2zVClaHSK-19" target="aAynQ1XD1Ic2zVClaHSK-21">
          <mxGeometry width="50" height="50" relative="1" as="geometry">
            <mxPoint x="218.58796821793416" y="427.7227722772277" as="sourcePoint" />
            <mxPoint x="264.8989784335982" y="380.1980198019802" as="targetPoint" />
          </mxGeometry>
        </mxCell>
        <mxCell id="aAynQ1XD1Ic2zVClaHSK-24" value="" style="endArrow=none;html=1;rounded=0;fontSize=24;exitX=1;exitY=0.5;exitDx=0;exitDy=0;" edge="1" parent="aAynQ1XD1Ic2zVClaHSK-120" source="aAynQ1XD1Ic2zVClaHSK-25" target="aAynQ1XD1Ic2zVClaHSK-20">
          <mxGeometry width="50" height="50" relative="1" as="geometry">
            <mxPoint x="644.6492622020431" y="693.8613861386139" as="sourcePoint" />
            <mxPoint x="741.9023836549376" y="598.8118811881188" as="targetPoint" />
          </mxGeometry>
        </mxCell>
        <mxCell id="aAynQ1XD1Ic2zVClaHSK-25" value="&lt;font style=&quot;font-size: 19px&quot;&gt;Check-in Passenger&lt;/font&gt;" style="ellipse;whiteSpace=wrap;html=1;fontSize=24;align=center;" vertex="1" parent="aAynQ1XD1Ic2zVClaHSK-120">
          <mxGeometry x="417.7253121452894" y="551.2871287128712" width="111.14642451759364" height="76.03960396039604" as="geometry" />
        </mxCell>
        <mxCell id="aAynQ1XD1Ic2zVClaHSK-26" value="" style="endArrow=none;html=1;rounded=0;fontSize=19;entryX=0;entryY=0.5;entryDx=0;entryDy=0;" edge="1" parent="aAynQ1XD1Ic2zVClaHSK-120" source="aAynQ1XD1Ic2zVClaHSK-19" target="aAynQ1XD1Ic2zVClaHSK-25">
          <mxGeometry width="50" height="50" relative="1" as="geometry">
            <mxPoint x="264.8989784335982" y="551.2871287128712" as="sourcePoint" />
            <mxPoint x="311.2099886492622" y="503.76237623762376" as="targetPoint" />
          </mxGeometry>
        </mxCell>
        <mxCell id="aAynQ1XD1Ic2zVClaHSK-27" value="" style="endArrow=none;dashed=1;html=1;rounded=0;fontSize=19;entryX=0.5;entryY=1;entryDx=0;entryDy=0;exitX=0.5;exitY=0;exitDx=0;exitDy=0;" edge="1" parent="aAynQ1XD1Ic2zVClaHSK-120" source="aAynQ1XD1Ic2zVClaHSK-25" target="aAynQ1XD1Ic2zVClaHSK-21">
          <mxGeometry width="50" height="50" relative="1" as="geometry">
            <mxPoint x="496.45402951191824" y="532.2772277227723" as="sourcePoint" />
            <mxPoint x="542.7650397275822" y="484.7524752475247" as="targetPoint" />
          </mxGeometry>
        </mxCell>
        <mxCell id="aAynQ1XD1Ic2zVClaHSK-29" value="Check-in Baggage" style="ellipse;whiteSpace=wrap;html=1;fontSize=19;align=center;" vertex="1" parent="aAynQ1XD1Ic2zVClaHSK-120">
          <mxGeometry x="306.5788876276958" y="674.8514851485148" width="111.14642451759364" height="76.03960396039604" as="geometry" />
        </mxCell>
        <mxCell id="aAynQ1XD1Ic2zVClaHSK-30" value="Security Check" style="ellipse;whiteSpace=wrap;html=1;fontSize=19;align=center;" vertex="1" parent="aAynQ1XD1Ic2zVClaHSK-120">
          <mxGeometry x="528.8717366628831" y="674.8514851485148" width="111.14642451759364" height="76.03960396039604" as="geometry" />
        </mxCell>
        <mxCell id="aAynQ1XD1Ic2zVClaHSK-31" value="" style="endArrow=classic;html=1;rounded=0;fontSize=19;exitX=0.233;exitY=0.95;exitDx=0;exitDy=0;exitPerimeter=0;entryX=0.733;entryY=0.063;entryDx=0;entryDy=0;entryPerimeter=0;" edge="1" parent="aAynQ1XD1Ic2zVClaHSK-120">
          <mxGeometry relative="1" as="geometry">
            <mxPoint x="431.61861520998866" y="618.7342574257426" as="sourcePoint" />
            <mxPoint x="376.0454029511918" y="674.8514851485148" as="targetPoint" />
            <Array as="points" />
          </mxGeometry>
        </mxCell>
        <mxCell id="aAynQ1XD1Ic2zVClaHSK-32" value="&amp;lt;&amp;lt;includes&amp;gt;&amp;gt;" style="edgeLabel;resizable=0;html=1;align=center;verticalAlign=middle;fontSize=19;" connectable="0" vertex="1" parent="aAynQ1XD1Ic2zVClaHSK-31">
          <mxGeometry relative="1" as="geometry" />
        </mxCell>
        <mxCell id="aAynQ1XD1Ic2zVClaHSK-34" value="" style="endArrow=classic;html=1;rounded=0;fontSize=19;entryX=0.35;entryY=-0.037;entryDx=0;entryDy=0;entryPerimeter=0;exitX=1;exitY=1;exitDx=0;exitDy=0;" edge="1" parent="aAynQ1XD1Ic2zVClaHSK-120" source="aAynQ1XD1Ic2zVClaHSK-25" target="aAynQ1XD1Ic2zVClaHSK-30">
          <mxGeometry relative="1" as="geometry">
            <mxPoint x="468.66742338251987" y="665.3465346534654" as="sourcePoint" />
            <mxPoint x="561.2894438138479" y="665.3465346534654" as="targetPoint" />
          </mxGeometry>
        </mxCell>
        <mxCell id="aAynQ1XD1Ic2zVClaHSK-35" value="&amp;lt;&amp;lt;includes&amp;gt;&amp;gt;" style="edgeLabel;resizable=0;html=1;align=center;verticalAlign=middle;fontSize=19;" connectable="0" vertex="1" parent="aAynQ1XD1Ic2zVClaHSK-34">
          <mxGeometry relative="1" as="geometry" />
        </mxCell>
        <mxCell id="aAynQ1XD1Ic2zVClaHSK-36" value="" style="endArrow=classic;html=1;rounded=0;fontSize=19;entryX=1;entryY=1;entryDx=0;entryDy=0;" edge="1" parent="aAynQ1XD1Ic2zVClaHSK-120" target="aAynQ1XD1Ic2zVClaHSK-30">
          <mxGeometry relative="1" as="geometry">
            <mxPoint x="663.1736662883087" y="807.9207920792079" as="sourcePoint" />
            <mxPoint x="737.2712826333711" y="883.9603960396039" as="targetPoint" />
            <Array as="points" />
          </mxGeometry>
        </mxCell>
        <mxCell id="aAynQ1XD1Ic2zVClaHSK-37" value="&amp;lt;&amp;lt;Extends&amp;gt;&amp;gt;" style="edgeLabel;resizable=0;html=1;align=center;verticalAlign=middle;fontSize=19;" connectable="0" vertex="1" parent="aAynQ1XD1Ic2zVClaHSK-36">
          <mxGeometry relative="1" as="geometry" />
        </mxCell>
        <mxCell id="aAynQ1XD1Ic2zVClaHSK-38" value="Submit&lt;br&gt;Full Body Scan" style="ellipse;whiteSpace=wrap;html=1;fontSize=19;align=center;" vertex="1" parent="aAynQ1XD1Ic2zVClaHSK-120">
          <mxGeometry x="635.3870601589103" y="807.9207920792079" width="111.14642451759364" height="76.03960396039604" as="geometry" />
        </mxCell>
        <mxCell id="aAynQ1XD1Ic2zVClaHSK-39" value="" style="endArrow=none;html=1;rounded=0;fontSize=19;exitX=0.725;exitY=0.013;exitDx=0;exitDy=0;exitPerimeter=0;entryX=0;entryY=1;entryDx=0;entryDy=0;entryPerimeter=0;" edge="1" parent="aAynQ1XD1Ic2zVClaHSK-120" source="aAynQ1XD1Ic2zVClaHSK-38" target="aAynQ1XD1Ic2zVClaHSK-20">
          <mxGeometry width="50" height="50" relative="1" as="geometry">
            <mxPoint x="728.0090805902383" y="703.3663366336633" as="sourcePoint" />
            <mxPoint x="774.3200908059024" y="655.8415841584158" as="targetPoint" />
          </mxGeometry>
        </mxCell>
        <mxCell id="aAynQ1XD1Ic2zVClaHSK-41" value="" style="endArrow=classic;html=1;rounded=0;fontSize=19;entryX=0.5;entryY=1;entryDx=0;entryDy=0;" edge="1" parent="aAynQ1XD1Ic2zVClaHSK-120" target="aAynQ1XD1Ic2zVClaHSK-29">
          <mxGeometry width="50" height="50" relative="1" as="geometry">
            <mxPoint x="264.8989784335982" y="807.9207920792079" as="sourcePoint" />
            <mxPoint x="357.5209988649262" y="769.9009900990098" as="targetPoint" />
            <Array as="points">
              <mxPoint x="431.61861520998866" y="807.9207920792079" />
              <mxPoint x="362.15209988649264" y="807.9207920792079" />
            </Array>
          </mxGeometry>
        </mxCell>
        <mxCell id="aAynQ1XD1Ic2zVClaHSK-42" value="" style="endArrow=none;html=1;rounded=0;fontSize=19;" edge="1" parent="aAynQ1XD1Ic2zVClaHSK-120">
          <mxGeometry width="50" height="50" relative="1" as="geometry">
            <mxPoint x="264.8989784335982" y="836.4356435643564" as="sourcePoint" />
            <mxPoint x="264.8989784335982" y="807.9207920792079" as="targetPoint" />
          </mxGeometry>
        </mxCell>
        <mxCell id="aAynQ1XD1Ic2zVClaHSK-44" value="" style="endArrow=none;html=1;rounded=0;fontSize=19;" edge="1" parent="aAynQ1XD1Ic2zVClaHSK-120">
          <mxGeometry width="50" height="50" relative="1" as="geometry">
            <mxPoint x="431.61861520998866" y="836.4356435643564" as="sourcePoint" />
            <mxPoint x="431.61861520998866" y="807.9207920792079" as="targetPoint" />
          </mxGeometry>
        </mxCell>
        <mxCell id="aAynQ1XD1Ic2zVClaHSK-50" value="&lt;h1&gt;Assumption&lt;/h1&gt;&lt;p&gt;&lt;span style=&quot;line-height: 1.2&quot;&gt;&lt;font style=&quot;font-size: 11px&quot;&gt;All types of baggage can be considered as &quot;baggage&quot; if they have any type or &quot;no baggage&quot; if they have none or a carry on&lt;/font&gt;&lt;/span&gt;&lt;br&gt;&lt;/p&gt;" style="text;html=1;strokeColor=none;fillColor=none;spacing=5;spacingTop=-20;whiteSpace=wrap;overflow=hidden;rounded=0;labelBackgroundColor=none;labelBorderColor=default;fontSize=12;align=center;" vertex="1" parent="aAynQ1XD1Ic2zVClaHSK-120">
          <mxGeometry y="817.4257425742574" width="175.98183881952326" height="114.05940594059405" as="geometry" />
        </mxCell>
        <mxCell id="aAynQ1XD1Ic2zVClaHSK-51" value="&lt;font style=&quot;font-size: 19px&quot;&gt;Baggage&lt;/font&gt;" style="ellipse;whiteSpace=wrap;html=1;labelBackgroundColor=none;labelBorderColor=none;fontSize=12;align=center;" vertex="1" parent="aAynQ1XD1Ic2zVClaHSK-120">
          <mxGeometry x="209.32576617480134" y="836.4356435643564" width="111.14642451759364" height="76.03960396039604" as="geometry" />
        </mxCell>
        <mxCell id="aAynQ1XD1Ic2zVClaHSK-52" value="No Baggage" style="ellipse;whiteSpace=wrap;html=1;labelBackgroundColor=none;labelBorderColor=none;fontSize=19;align=center;" vertex="1" parent="aAynQ1XD1Ic2zVClaHSK-120">
          <mxGeometry x="376.0454029511918" y="836.4356435643564" width="111.14642451759364" height="76.03960396039604" as="geometry" />
        </mxCell>
        <mxCell id="aAynQ1XD1Ic2zVClaHSK-53" value="" style="endArrow=none;html=1;rounded=0;fontSize=19;exitX=0.5;exitY=1;exitDx=0;exitDy=0;" edge="1" parent="aAynQ1XD1Ic2zVClaHSK-120" source="aAynQ1XD1Ic2zVClaHSK-38">
          <mxGeometry width="50" height="50" relative="1" as="geometry">
            <mxPoint x="186.17026106696935" y="931.4851485148514" as="sourcePoint" />
            <mxPoint x="190.80136208853574" y="475.2475247524752" as="targetPoint" />
            <Array as="points">
              <mxPoint x="690.9602724177072" y="960" />
              <mxPoint x="190.80136208853574" y="960" />
            </Array>
          </mxGeometry>
        </mxCell>
        <mxCell id="aAynQ1XD1Ic2zVClaHSK-56" value="Tour Guide" style="text;html=1;strokeColor=none;fillColor=none;align=center;verticalAlign=middle;whiteSpace=wrap;rounded=0;labelBackgroundColor=none;labelBorderColor=none;fontSize=19;" vertex="1" parent="aAynQ1XD1Ic2zVClaHSK-120">
          <mxGeometry x="162.08853575482405" y="361.18811881188117" width="55.57321225879682" height="28.51485148514851" as="geometry" />
        </mxCell>
        <mxCell id="aAynQ1XD1Ic2zVClaHSK-57" value="Passenger" style="text;html=1;strokeColor=none;fillColor=none;align=center;verticalAlign=middle;whiteSpace=wrap;rounded=0;labelBackgroundColor=none;labelBorderColor=none;fontSize=19;" vertex="1" parent="aAynQ1XD1Ic2zVClaHSK-120">
          <mxGeometry x="760.4267877412032" y="532.2772277227723" width="55.57321225879682" height="28.51485148514851" as="geometry" />
        </mxCell>
        <mxCell id="aAynQ1XD1Ic2zVClaHSK-58" value="2." style="text;html=1;align=center;verticalAlign=middle;resizable=0;points=[];autosize=1;strokeColor=none;fillColor=none;fontSize=19;" vertex="1" parent="aAynQ1XD1Ic2zVClaHSK-120">
          <mxGeometry x="116.70374574347332" y="332.6732673267327" width="30" height="30" as="geometry" />
        </mxCell>
        <mxCell id="aAynQ1XD1Ic2zVClaHSK-121" value="" style="group" vertex="1" connectable="0" parent="1">
          <mxGeometry x="170" y="1410" width="640" height="710" as="geometry" />
        </mxCell>
        <mxCell id="aAynQ1XD1Ic2zVClaHSK-64" value="" style="endArrow=none;html=1;rounded=0;fontSize=19;" edge="1" parent="aAynQ1XD1Ic2zVClaHSK-121" source="aAynQ1XD1Ic2zVClaHSK-63">
          <mxGeometry width="50" height="50" relative="1" as="geometry">
            <mxPoint x="177.34939759036146" y="-49.65034965034965" as="sourcePoint" />
            <mxPoint x="177.34939759036146" y="9.93006993006993" as="targetPoint" />
          </mxGeometry>
        </mxCell>
        <mxCell id="aAynQ1XD1Ic2zVClaHSK-76" value="" style="edgeStyle=orthogonalEdgeStyle;rounded=0;orthogonalLoop=1;jettySize=auto;html=1;fontSize=19;entryX=0;entryY=1;entryDx=0;entryDy=0;" edge="1" parent="aAynQ1XD1Ic2zVClaHSK-121" source="aAynQ1XD1Ic2zVClaHSK-67" target="aAynQ1XD1Ic2zVClaHSK-67">
          <mxGeometry relative="1" as="geometry">
            <mxPoint x="18.506024096385545" y="268.1118881118881" as="targetPoint" />
            <Array as="points">
              <mxPoint y="158.88111888111888" />
              <mxPoint y="248.25174825174827" />
              <mxPoint x="131.0843373493976" y="248.25174825174827" />
            </Array>
          </mxGeometry>
        </mxCell>
        <mxCell id="aAynQ1XD1Ic2zVClaHSK-79" value="&lt;font style=&quot;font-size: 15px&quot;&gt;Pause Clicked [Data not available]&lt;br&gt;/ DIsplay &quot;No Data&quot;&lt;br&gt;&lt;/font&gt;" style="edgeLabel;html=1;align=center;verticalAlign=middle;resizable=0;points=[];fontSize=12;" vertex="1" connectable="0" parent="aAynQ1XD1Ic2zVClaHSK-76">
          <mxGeometry x="0.063" y="-1" relative="1" as="geometry">
            <mxPoint as="offset" />
          </mxGeometry>
        </mxCell>
        <mxCell id="aAynQ1XD1Ic2zVClaHSK-67" value="Running" style="whiteSpace=wrap;html=1;rounded=0;fontSize=19;" vertex="1" parent="aAynQ1XD1Ic2zVClaHSK-121">
          <mxGeometry x="131.0843373493976" y="139.020979020979" width="92.53012048192771" height="59.58041958041958" as="geometry" />
        </mxCell>
        <mxCell id="aAynQ1XD1Ic2zVClaHSK-98" style="edgeStyle=orthogonalEdgeStyle;rounded=0;orthogonalLoop=1;jettySize=auto;html=1;exitX=0;exitY=0.5;exitDx=0;exitDy=0;fontSize=15;entryX=0;entryY=1;entryDx=0;entryDy=0;" edge="1" parent="aAynQ1XD1Ic2zVClaHSK-121" source="aAynQ1XD1Ic2zVClaHSK-73" target="aAynQ1XD1Ic2zVClaHSK-73">
          <mxGeometry relative="1" as="geometry">
            <mxPoint x="169.63855421686748" y="436.9230769230769" as="targetPoint" />
            <Array as="points">
              <mxPoint y="347.5524475524476" />
              <mxPoint y="476.64335664335664" />
              <mxPoint x="131.0843373493976" y="476.64335664335664" />
            </Array>
          </mxGeometry>
        </mxCell>
        <mxCell id="aAynQ1XD1Ic2zVClaHSK-100" value="Save Button Clicked[Data Available]&lt;br&gt;/ Display &quot;Data Saved&quot; Message" style="edgeLabel;html=1;align=center;verticalAlign=middle;resizable=0;points=[];fontSize=15;" vertex="1" connectable="0" parent="aAynQ1XD1Ic2zVClaHSK-98">
          <mxGeometry x="-0.1965" relative="1" as="geometry">
            <mxPoint as="offset" />
          </mxGeometry>
        </mxCell>
        <mxCell id="aAynQ1XD1Ic2zVClaHSK-99" style="edgeStyle=orthogonalEdgeStyle;rounded=0;orthogonalLoop=1;jettySize=auto;html=1;exitX=1;exitY=0.5;exitDx=0;exitDy=0;entryX=1;entryY=1;entryDx=0;entryDy=0;fontSize=15;" edge="1" parent="aAynQ1XD1Ic2zVClaHSK-121" source="aAynQ1XD1Ic2zVClaHSK-73" target="aAynQ1XD1Ic2zVClaHSK-67">
          <mxGeometry relative="1" as="geometry">
            <Array as="points">
              <mxPoint x="223.61445783132532" y="367.4125874125874" />
              <mxPoint x="370.12048192771084" y="367.4125874125874" />
              <mxPoint x="370.12048192771084" y="198.6013986013986" />
            </Array>
          </mxGeometry>
        </mxCell>
        <mxCell id="aAynQ1XD1Ic2zVClaHSK-101" value="Triggered to run" style="edgeLabel;html=1;align=center;verticalAlign=middle;resizable=0;points=[];fontSize=15;" vertex="1" connectable="0" parent="aAynQ1XD1Ic2zVClaHSK-99">
          <mxGeometry x="-0.5614" y="2" relative="1" as="geometry">
            <mxPoint as="offset" />
          </mxGeometry>
        </mxCell>
        <mxCell id="aAynQ1XD1Ic2zVClaHSK-73" value="Paused" style="whiteSpace=wrap;html=1;rounded=0;fontSize=19;" vertex="1" parent="aAynQ1XD1Ic2zVClaHSK-121">
          <mxGeometry x="131.0843373493976" y="317.76223776223776" width="92.53012048192771" height="59.58041958041958" as="geometry" />
        </mxCell>
        <mxCell id="aAynQ1XD1Ic2zVClaHSK-74" value="" style="edgeStyle=orthogonalEdgeStyle;rounded=0;orthogonalLoop=1;jettySize=auto;html=1;fontSize=19;" edge="1" parent="aAynQ1XD1Ic2zVClaHSK-121" source="aAynQ1XD1Ic2zVClaHSK-67" target="aAynQ1XD1Ic2zVClaHSK-73">
          <mxGeometry relative="1" as="geometry" />
        </mxCell>
        <mxCell id="aAynQ1XD1Ic2zVClaHSK-81" value="Pause clicked [Data Available]/ Display &quot;save data&quot; button" style="edgeLabel;html=1;align=center;verticalAlign=middle;resizable=0;points=[];fontSize=15;" vertex="1" connectable="0" parent="aAynQ1XD1Ic2zVClaHSK-74">
          <mxGeometry x="0.3333" y="-1" relative="1" as="geometry">
            <mxPoint as="offset" />
          </mxGeometry>
        </mxCell>
        <mxCell id="aAynQ1XD1Ic2zVClaHSK-83" value="remove Data" style="rounded=0;whiteSpace=wrap;html=1;labelBackgroundColor=none;labelBorderColor=none;fontSize=15;align=center;" vertex="1" parent="aAynQ1XD1Ic2zVClaHSK-121">
          <mxGeometry x="370.12048192771084" y="496.50349650349654" width="92.53012048192771" height="59.58041958041958" as="geometry" />
        </mxCell>
        <mxCell id="aAynQ1XD1Ic2zVClaHSK-70" style="edgeStyle=orthogonalEdgeStyle;rounded=0;orthogonalLoop=1;jettySize=auto;html=1;exitX=1;exitY=0.5;exitDx=0;exitDy=0;fontSize=19;" edge="1" parent="aAynQ1XD1Ic2zVClaHSK-121" source="aAynQ1XD1Ic2zVClaHSK-67" target="aAynQ1XD1Ic2zVClaHSK-83">
          <mxGeometry relative="1" as="geometry">
            <mxPoint x="416.3855421686747" y="446.8531468531469" as="targetPoint" />
            <Array as="points">
              <mxPoint x="416.3855421686747" y="168.81118881118883" />
            </Array>
          </mxGeometry>
        </mxCell>
        <mxCell id="aAynQ1XD1Ic2zVClaHSK-72" value="Reset Clicked [Data Available]/ Remove all data" style="edgeLabel;html=1;align=center;verticalAlign=middle;resizable=0;points=[];fontSize=19;" vertex="1" connectable="0" parent="aAynQ1XD1Ic2zVClaHSK-70">
          <mxGeometry x="-0.0629" y="-2" relative="1" as="geometry">
            <mxPoint x="12" y="268" as="offset" />
          </mxGeometry>
        </mxCell>
        <mxCell id="aAynQ1XD1Ic2zVClaHSK-87" value="" style="ellipse;html=1;shape=endState;fillColor=#000000;strokeColor=#ff0000;labelBackgroundColor=none;labelBorderColor=none;fontSize=15;align=center;" vertex="1" parent="aAynQ1XD1Ic2zVClaHSK-121">
          <mxGeometry x="404.81927710843377" y="665.3146853146853" width="23.132530120481928" height="29.79020979020979" as="geometry" />
        </mxCell>
        <mxCell id="aAynQ1XD1Ic2zVClaHSK-85" style="edgeStyle=orthogonalEdgeStyle;rounded=0;orthogonalLoop=1;jettySize=auto;html=1;exitX=1;exitY=0.25;exitDx=0;exitDy=0;fontSize=15;" edge="1" parent="aAynQ1XD1Ic2zVClaHSK-121" source="aAynQ1XD1Ic2zVClaHSK-67" target="aAynQ1XD1Ic2zVClaHSK-87">
          <mxGeometry relative="1" as="geometry">
            <mxPoint x="616.8674698795181" y="417.06293706293707" as="targetPoint" />
            <Array as="points">
              <mxPoint x="640" y="153.91608391608392" />
              <mxPoint x="640" y="680.2097902097902" />
            </Array>
          </mxGeometry>
        </mxCell>
        <mxCell id="aAynQ1XD1Ic2zVClaHSK-86" value="Reset Clicked [Data Not Available]" style="edgeLabel;html=1;align=center;verticalAlign=middle;resizable=0;points=[];fontSize=15;" vertex="1" connectable="0" parent="aAynQ1XD1Ic2zVClaHSK-85">
          <mxGeometry x="0.6078" relative="1" as="geometry">
            <mxPoint x="-99" as="offset" />
          </mxGeometry>
        </mxCell>
        <mxCell id="aAynQ1XD1Ic2zVClaHSK-107" style="edgeStyle=orthogonalEdgeStyle;rounded=0;orthogonalLoop=1;jettySize=auto;html=1;exitX=1;exitY=1;exitDx=0;exitDy=0;fontSize=15;entryX=0;entryY=0.5;entryDx=0;entryDy=0;" edge="1" parent="aAynQ1XD1Ic2zVClaHSK-121" source="aAynQ1XD1Ic2zVClaHSK-73" target="aAynQ1XD1Ic2zVClaHSK-87">
          <mxGeometry relative="1" as="geometry">
            <mxPoint x="354.6987951807229" y="665.3146853146853" as="targetPoint" />
            <Array as="points">
              <mxPoint x="208.19277108433735" y="377.34265734265733" />
              <mxPoint x="208.19277108433735" y="526.2937062937064" />
              <mxPoint x="308.43373493975906" y="526.2937062937064" />
              <mxPoint x="308.43373493975906" y="645.4545454545455" />
              <mxPoint x="362.4096385542169" y="645.4545454545455" />
              <mxPoint x="362.4096385542169" y="680.2097902097902" />
            </Array>
          </mxGeometry>
        </mxCell>
        <mxCell id="aAynQ1XD1Ic2zVClaHSK-108" value="Reset Clicked [Data not available]" style="edgeLabel;html=1;align=center;verticalAlign=middle;resizable=0;points=[];fontSize=15;" vertex="1" connectable="0" parent="aAynQ1XD1Ic2zVClaHSK-107">
          <mxGeometry x="0.4148" relative="1" as="geometry">
            <mxPoint y="-20" as="offset" />
          </mxGeometry>
        </mxCell>
        <mxCell id="aAynQ1XD1Ic2zVClaHSK-91" style="edgeStyle=orthogonalEdgeStyle;rounded=0;orthogonalLoop=1;jettySize=auto;html=1;exitX=0.5;exitY=1;exitDx=0;exitDy=0;entryX=0.5;entryY=0;entryDx=0;entryDy=0;fontSize=15;" edge="1" parent="aAynQ1XD1Ic2zVClaHSK-121" source="aAynQ1XD1Ic2zVClaHSK-83" target="aAynQ1XD1Ic2zVClaHSK-87">
          <mxGeometry relative="1" as="geometry" />
        </mxCell>
        <mxCell id="aAynQ1XD1Ic2zVClaHSK-106" style="edgeStyle=orthogonalEdgeStyle;rounded=0;orthogonalLoop=1;jettySize=auto;html=1;exitX=1;exitY=0.5;exitDx=0;exitDy=0;entryX=0.5;entryY=1;entryDx=0;entryDy=0;fontSize=15;" edge="1" parent="aAynQ1XD1Ic2zVClaHSK-121" source="aAynQ1XD1Ic2zVClaHSK-103" target="aAynQ1XD1Ic2zVClaHSK-87">
          <mxGeometry relative="1" as="geometry" />
        </mxCell>
        <mxCell id="aAynQ1XD1Ic2zVClaHSK-103" value="Data Removed" style="whiteSpace=wrap;html=1;rounded=0;fontSize=19;" vertex="1" parent="aAynQ1XD1Ic2zVClaHSK-121">
          <mxGeometry x="131.0843373493976" y="650.4195804195805" width="92.53012048192771" height="59.58041958041958" as="geometry" />
        </mxCell>
        <mxCell id="aAynQ1XD1Ic2zVClaHSK-104" value="" style="edgeStyle=orthogonalEdgeStyle;rounded=0;orthogonalLoop=1;jettySize=auto;html=1;fontSize=15;" edge="1" parent="aAynQ1XD1Ic2zVClaHSK-121" source="aAynQ1XD1Ic2zVClaHSK-73" target="aAynQ1XD1Ic2zVClaHSK-103">
          <mxGeometry relative="1" as="geometry" />
        </mxCell>
        <mxCell id="aAynQ1XD1Ic2zVClaHSK-105" value="Reset Clicked[Data Available]/ Remove all data" style="edgeLabel;html=1;align=center;verticalAlign=middle;resizable=0;points=[];fontSize=15;" vertex="1" connectable="0" parent="aAynQ1XD1Ic2zVClaHSK-104">
          <mxGeometry x="0.4154" relative="1" as="geometry">
            <mxPoint as="offset" />
          </mxGeometry>
        </mxCell>
        <mxCell id="aAynQ1XD1Ic2zVClaHSK-63" value="" style="shape=waypoint;sketch=0;size=6;pointerEvents=1;points=[];fillColor=none;resizable=0;rotatable=0;perimeter=centerPerimeter;snapToPoint=1;labelBackgroundColor=none;labelBorderColor=none;fontSize=19;align=center;html=1;" vertex="1" parent="aAynQ1XD1Ic2zVClaHSK-121">
          <mxGeometry x="161.9277108433735" width="40" height="40" as="geometry" />
        </mxCell>
        <mxCell id="aAynQ1XD1Ic2zVClaHSK-68" value="" style="edgeStyle=orthogonalEdgeStyle;rounded=0;orthogonalLoop=1;jettySize=auto;html=1;fontSize=19;startArrow=none;" edge="1" parent="aAynQ1XD1Ic2zVClaHSK-121" source="aAynQ1XD1Ic2zVClaHSK-63" target="aAynQ1XD1Ic2zVClaHSK-67">
          <mxGeometry relative="1" as="geometry">
            <mxPoint x="177.34939759036146" y="69.5104895104895" as="sourcePoint" />
          </mxGeometry>
        </mxCell>
        <mxCell id="aAynQ1XD1Ic2zVClaHSK-109" value="" style="edgeStyle=orthogonalEdgeStyle;rounded=0;orthogonalLoop=1;jettySize=auto;html=1;fontSize=19;endArrow=none;" edge="1" parent="aAynQ1XD1Ic2zVClaHSK-121" target="aAynQ1XD1Ic2zVClaHSK-63">
          <mxGeometry relative="1" as="geometry">
            <mxPoint x="177.34939759036146" y="69.5104895104895" as="sourcePoint" />
            <mxPoint x="177.34939759036146" y="139.020979020979" as="targetPoint" />
          </mxGeometry>
        </mxCell>
        <mxCell id="aAynQ1XD1Ic2zVClaHSK-110" value="Triggered to Run" style="edgeLabel;html=1;align=center;verticalAlign=middle;resizable=0;points=[];fontSize=19;" vertex="1" connectable="0" parent="aAynQ1XD1Ic2zVClaHSK-109">
          <mxGeometry x="-0.1429" y="-2" relative="1" as="geometry">
            <mxPoint x="-2" y="24" as="offset" />
          </mxGeometry>
        </mxCell>
      </root>
    </mxGraphModel>
  </diagram>
</mxfile>
